<?xml version="1.0" encoding="UTF-8" standalone="no"?>
<svg
   xmlns:dc="http://purl.org/dc/elements/1.1/"
   xmlns:cc="http://creativecommons.org/ns#"
   xmlns:rdf="http://www.w3.org/1999/02/22-rdf-syntax-ns#"
   xmlns:svg="http://www.w3.org/2000/svg"
   xmlns="http://www.w3.org/2000/svg"
   xmlns:sodipodi="http://sodipodi.sourceforge.net/DTD/sodipodi-0.dtd"
   xmlns:inkscape="http://www.inkscape.org/namespaces/inkscape"
   fill="none"
   viewBox="0 0 36 36"
   version="1.1"
   id="svg15"
   sodipodi:docname="favicon.svg"
   inkscape:version="0.92.3 (2405546, 2018-03-11)">
  <metadata
     id="metadata19">
    <rdf:RDF>
      <cc:Work
         rdf:about="">
        <dc:format>image/svg+xml</dc:format>
        <dc:type
           rdf:resource="http://purl.org/dc/dcmitype/StillImage" />
      </cc:Work>
    </rdf:RDF>
  </metadata>
  <sodipodi:namedview
     pagecolor="#ffffff"
     bordercolor="#666666"
     borderopacity="1"
     objecttolerance="10"
     gridtolerance="10"
     guidetolerance="10"
     inkscape:pageopacity="0"
     inkscape:pageshadow="2"
     inkscape:window-width="1920"
     inkscape:window-height="1051"
     id="namedview17"
     showgrid="false"
     inkscape:zoom="20.222222"
     inkscape:cx="14.720328"
     inkscape:cy="17.904569"
     inkscape:window-x="-9"
     inkscape:window-y="-9"
     inkscape:window-maximized="1"
     inkscape:current-layer="svg15" />
  <defs
     id="defs11">
    <linearGradient
       id="gradient"
       x1="16"
       x2="16"
       y1="32"
       y2="24"
       gradientUnits="userSpaceOnUse">
      <stop
         stop-color="#000"
         id="stop6" />
      <stop
         offset="1"
         stop-color="#000"
         stop-opacity="0"
         id="stop8" />
    </linearGradient>
  </defs>
  <style
     id="style13">
    @media (prefers-color-scheme:dark){:root{filter:invert(100%)}}
  </style>
  <path
     style="display:inline;fill:#000000;stroke-width:0.04282568"
     d="M 4.0917422,32.910727 C 3.4511536,32.715865 3.127265,32.038609 3.3940474,31.451843 3.7598751,30.647221 4.8934625,30.629501 5.2978088,31.422086 5.7000721,32.210591 4.9269923,33.164797 4.0917422,32.910727 Z M 5.646441,32.447536 c 0.1323739,-0.287898 0.1323739,-0.846978 0,-1.134878 L 5.55291,31.109237 h 0.1701158 c 0.3177015,0 1.050676,-0.442516 1.427859,-0.862035 0.585848,-0.651601 0.945819,-1.68593 1.048845,-3.013697 0.06525,-0.840968 0.102416,-5.006006 0.106034,-11.884124 0.0034,-6.4912876 -0.0026,-6.7395507 -0.187956,-7.7115355 C 7.9721158,6.8737026 7.6821658,6.3022236 7.1398898,5.7104257 6.7751238,5.3123516 6.6136188,5.2142264 6.2654233,5.1791635 6.1064329,5.1631474 5.9763493,5.1411773 5.9763493,5.1303365 c 0,-0.010841 0.039342,-0.096825 0.087429,-0.1910884 C 6.2281157,4.6171216 6.216891,4.1469616 6.0344645,3.711494 6.0165823,3.668809 7.2922638,3.6579615 12.330211,3.6579615 h 6.318174 l -0.06985,0.1605987 c -0.04348,0.099969 -0.07038,0.2818453 -0.07125,0.4817895 -0.0011,0.2609888 0.0204,0.3683182 0.114865,0.5726115 0.06394,0.1382836 0.116255,0.2587313 0.116255,0.2676603 0,0.00893 -0.101176,0.016426 -0.224835,0.016661 -0.576142,0.00107 -1.497424,0.7153743 -1.954079,1.5150728 -0.205111,0.3591864 -0.387919,0.854507 -0.499665,1.353828 -0.0906,0.404833 -0.138123,3.8737867 -0.143455,10.4708857 -0.0056,6.965549 0.07373,8.176926 0.60602,9.250348 0.641502,1.293661 2.069515,1.777665 5.24325,1.77712 1.300325,0 2.340034,-0.119474 3.385519,-0.388288 1.95544,-0.502791 3.60571,-1.58935 4.642575,-3.056736 0.228735,-0.32371 0.341297,-0.63727 0.530943,-1.479046 0.06094,-0.270462 0.117481,-0.498441 0.125662,-0.506624 0.0082,-0.0082 0.06017,0.01482 0.11553,0.05108 0.05536,0.03627 0.223485,0.09742 0.373609,0.135881 0.29272,0.07499 0.552531,0.05911 0.813804,-0.04974 0.08017,-0.03339 0.15357,-0.05291 0.163118,-0.04336 0.01798,0.01798 -0.527758,7.958899 -0.569131,8.281236 l -0.02336,0.182013 H 18.438409 5.5529099 Z m 13.006313,-0.297017 c 0,-0.01615 -0.04301,-0.07514 -0.09556,-0.131089 -0.124454,-0.132469 -0.121231,-0.383417 0.0072,-0.563842 l 0.09416,-0.132229 h -1.674402 -1.674401 l 0.09541,0.129043 c 0.128304,0.173542 0.118427,0.388623 -0.02657,0.57873 l -0.113451,0.148745 h 1.693796 c 0.931587,0 1.693793,-0.01322 1.693793,-0.02936 z m 4.060079,-0.19548 0.01306,-0.203421 h -1.54407 -1.544072 v 0.185578 c 0,0.102067 0.01309,0.198667 0.02909,0.214667 0.016,0.016 0.704957,0.02403 1.531018,0.01784 l 1.501929,-0.01125 z m -8.295153,0.04854 c 0.2242,-0.240009 0.216381,-0.467727 -0.02433,-0.708433 L 14.250267,31.152064 H 11.395896 8.5415268 l 0.10362,0.139184 c 0.05699,0.07655 0.116113,0.192017 0.131382,0.256589 0.02988,0.126399 -0.05768,0.383426 -0.174676,0.512708 -0.06642,0.07339 0.04815,0.07651 2.8109462,0.07651 h 2.88019 z m 12.115,-0.166306 V 31.53749 h -1.520311 -1.520311 v 0.299783 0.299776 h 1.520311 1.520311 z m 2.141023,-1.434269 c 0.636105,-0.953727 1.156556,-1.74362 1.156556,-1.755315 0,-0.02324 -0.32724,-0.236474 -0.362905,-0.236474 -0.0121,0 -0.54205,0.779722 -1.177666,1.73271 l -1.155666,1.732715 0.181118,0.128295 c 0.09962,0.07056 0.18582,0.129159 0.191562,0.130204 0.0057,9.4e-4 0.530894,-0.778406 1.167001,-1.732135 z m 1.043739,-0.06614 c 0.538581,-0.988443 0.98604,-1.797165 0.994354,-1.797165 0.02553,0 -0.01257,0.08352 -0.797154,1.747575 l -0.761102,1.614243 0.220589,0.114147 c 0.121323,0.06278 0.23419,0.10121 0.250814,0.0854 0.02562,-0.02436 1.201162,-2.504226 1.639536,-3.458688 l 0.139701,-0.304175 -0.230859,-0.113224 -0.230858,-0.113224 -0.09086,0.187022 -0.09086,0.187024 -0.296119,-0.170719 c -0.162862,-0.0939 -0.302532,-0.163677 -0.310377,-0.15506 -0.09693,0.106458 -1.991816,3.653936 -1.965699,3.680047 0.04207,0.04208 0.496857,0.295783 0.528246,0.294695 0.01177,-8.06e-4 0.462071,-0.809462 1.000652,-1.797897 z m -2.499549,0.858026 v -0.21413 h -1.520314 -1.520311 v 0.214129 0.21413 h 1.520311 1.520314 z M 7.6798188,30.831327 c 1.131827,-0.357546 1.517407,-1.069247 1.636027,-3.019758 0.05827,-0.95812 0.05837,-18.4161956 1.46e-4,-19.3294164 C 9.2662448,7.7023735 9.1810388,7.1225316 9.0573388,6.7220329 8.9490448,6.3714198 8.6660738,5.9529248 8.4021188,5.753002 8.2114908,5.6086134 7.6672868,5.3788326 7.6223618,5.4237609 c -0.01134,0.011331 0.06346,0.1245491 0.16621,0.2515804 0.472,0.5835368 0.714768,1.149041 0.862117,2.008238 0.166835,0.9728273 0.172901,1.2466068 0.170336,7.6872097 -0.003,7.335668 -0.06398,11.895986 -0.168001,12.547928 -0.191608,1.200881 -0.595492,2.125717 -1.209388,2.769324 -0.272195,0.285365 -0.252119,0.297546 0.236208,0.143286 z m 7.5734602,-0.08459 c 0.247587,-0.258398 0.309967,-0.471031 0.212815,-0.725421 -0.0402,-0.105275 -0.149112,-0.260081 -0.24202,-0.344015 L 15.055149,29.524684 H 12.180176 9.3052018 l 0.1091,0.08581 c 0.06,0.0472 0.151747,0.17392 0.203872,0.281591 0.126809,0.261953 0.09297,0.515036 -0.109687,0.820256 l -0.149782,0.225585 h 2.8556862 2.855687 z m 8.345842,-0.238594 c 1.970883,-0.144671 3.078933,-0.441275 4.06844,-1.089027 0.539397,-0.353097 1.199646,-1.100775 1.626731,-1.842136 l 0.122857,-0.213267 -0.189583,0.162698 c -0.786752,0.675157 -1.285795,1.018837 -1.992687,1.372331 -1.506178,0.753181 -2.97029,1.079852 -5.049006,1.126524 -3.607517,0.08099 -5.307185,-0.476281 -6.098351,-1.999477 C 15.653737,27.190644 15.539941,26.475726 15.436528,23.935936 15.372198,22.355891 15.415148,9.0392184 15.486598,8.4154434 15.617987,7.268311 16.031661,6.3276788 16.716939,5.6178585 17.033833,5.2896115 17.015305,5.271928 16.526396,5.4360549 15.724379,5.7052832 15.273534,6.2241313 15.058197,7.1257153 14.887694,7.8395864 14.87815,8.466905 14.895306,17.833272 c 0.01483,8.094409 0.02333,9.010671 0.08694,9.367534 0.110307,0.618854 0.194195,0.905113 0.373539,1.274651 0.483555,0.996383 1.303855,1.539377 2.783064,1.842251 0.422893,0.08658 0.738082,0.123235 1.777266,0.206646 0.436262,0.03502 3.147709,0.02308 3.683009,-0.01621 z m -8.946578,-1.29199 c 0.305653,-0.209438 0.350476,-0.463501 0.12567,-0.712339 l -0.148707,-0.164599 -2.38307,-0.03031 c -1.310688,-0.01667 -2.3940822,-0.01931 -2.4075452,-0.0059 -0.01346,0.01347 0.01521,0.05228 0.06372,0.08625 0.04851,0.03397 0.1210802,0.131082 0.1612782,0.215792 0.08544,0.180046 0.05396,0.315607 -0.1289752,0.55545 l -0.114415,0.150008 h 2.3471402 2.34714 z M 14.455837,28.07607 c 0,-0.01945 -0.04718,-0.07968 -0.104844,-0.133855 -0.189879,-0.178377 -0.179614,-0.528786 0.0208,-0.710168 0.04622,-0.04183 0.08404,-0.09234 0.08404,-0.112238 0,-0.0199 -0.958761,-0.03558 -2.130579,-0.03484 l -2.130578,0.0014 -0.112425,0.09906 c -0.2953342,0.260219 -0.3179542,0.503822 -0.06914,0.744578 0.121279,0.117348 0.173767,0.136171 0.417104,0.149602 0.595757,0.03289 4.025616,0.02992 4.025616,-0.0035 z m -0.372595,-3.197393 c 0.295859,-1.10672 0.532174,-2.017974 0.525142,-2.025007 -0.0269,-0.0269 -0.797275,-0.235675 -0.810041,-0.219524 -0.0074,0.0094 -0.250537,0.903508 -0.540313,1.986998 -0.289776,1.083489 -0.534768,1.998887 -0.544426,2.034219 -0.0133,0.04867 0.07896,0.09087 0.380549,0.174087 0.218957,0.06041 0.410042,0.09896 0.424633,0.08564 0.01459,-0.01331 0.268595,-0.929692 0.564456,-2.036418 z m -3.610196,-0.06482 V 22.7154 H 10.19468 9.9163128 v 2.098457 2.098458 h 0.2783672 0.278366 z m 1.024055,1.809382 c 0.458444,-1.549693 1.074405,-3.665063 1.074405,-3.689782 0,-0.04312 -0.742861,-0.256444 -0.778194,-0.223473 -0.01581,0.01475 -0.283474,0.894049 -0.59481,1.953982 -0.311337,1.059939 -0.574669,1.950163 -0.585182,1.978285 -0.01814,0.04854 0.552094,0.258122 0.725135,0.266513 0.05426,0.0026 0.0952,-0.07104 0.158646,-0.285525 z m 1.550733,-1.780664 c 0.368737,-1.377123 0.52555,-2.028208 0.492664,-2.045551 -0.08368,-0.04413 -0.756019,-0.223326 -0.771436,-0.205614 -0.02389,0.02745 -1.101817,4.073586 -1.088053,4.084139 0.03723,0.02856 0.786757,0.218936 0.804677,0.204388 0.01169,-0.0095 0.264651,-0.926301 0.562148,-2.037362 z m 1.2367,-2.769564 v -0.299779 h -2.092857 -2.092854 l -0.02655,0.160592 c -0.0146,0.08833 -0.02676,0.223234 -0.02702,0.299784 l -5.07e-4,0.139183 h 2.119872 2.119872 z m 0.171303,-0.556735 v -0.128475 h -2.09846 -2.098458 v 0.128475 0.128476 h 2.098458 2.09846 z M 14.26312,21.045195 v -0.235538 h -2.098457 -2.098459 l -0.01341,0.186907 c -0.02384,0.33229 -0.2009232,0.307645 2.121386,0.295289 l 2.088938,-0.01111 z M 13.984754,20.488458 V 20.27433 H 11.886295 9.7878358 v 0.214128 0.214131 h 2.0984592 2.098459 z m 0.278366,-0.706619 v -0.299782 l -2.08265,-0.01111 -2.082654,-0.01112 -0.02592,0.09676 c -0.0352,0.131359 -0.03395,0.482495 0.0019,0.51829 0.01592,0.01592 0.965049,0.02395 2.109164,0.01784 l 2.080213,-0.01112 z M 14.070405,18.903911 V 18.475652 H 11.971946 9.8734868 v 0.399707 c 0,0.219836 0.01285,0.412551 0.02855,0.428253 0.0157,0.0157 0.9600082,0.02855 2.0984582,0.02855 h 2.069908 z m -2.028874,-0.856518 c 0.0088,0 0.01607,-0.01956 0.01607,-0.04348 0,-0.04395 -1.536177,-3.860532 -1.566598,-3.892161 -0.009,-0.0094 -0.166129,0.05179 -0.349091,0.135954 -0.2140912,0.09849 -0.3286612,0.174972 -0.3214392,0.214572 0.0062,0.03384 0.3446552,0.88806 0.7521872,1.898265 0.407533,1.010206 0.753515,1.870282 0.768851,1.911284 0.02519,0.06735 0.05953,0.06013 0.35592,-0.07495 0.180421,-0.08222 0.335267,-0.149491 0.344102,-0.149491 z m 0.669154,0.03885 c -0.01587,-0.08929 -1.380095,-3.395351 -1.415805,-3.43106 -0.04047,-0.04047 -0.436219,0.103083 -0.437041,0.158538 -3.64e-4,0.02373 0.319699,0.827197 0.711223,1.785463 l 0.711863,1.742291 0.220236,-0.09749 c 0.132325,-0.05857 0.215961,-0.121535 0.209524,-0.157745 z m 1.754717,-0.0066 0.245106,-0.210042 -1.097184,-1.313648 c -0.603453,-0.722511 -1.149271,-1.36818 -1.212927,-1.434835 l -0.11574,-0.121189 -0.284188,0.241099 -0.284189,0.24109 0.863699,1.036392 c 1.357421,1.628827 1.536537,1.831522 1.590615,1.800076 0.02733,-0.0159 0.159999,-0.123425 0.294808,-0.238951 z m -0.459382,-2.890861 0.788889,-0.760157 -0.209822,-0.21108 -0.209823,-0.211073 -0.497676,0.468033 c -0.273722,0.257417 -0.633334,0.593293 -0.79914,0.7464 l -0.301461,0.278368 0.183199,0.22483 c 0.10076,0.123663 0.199792,0.224836 0.220072,0.224836 0.02028,0 0.391873,-0.342068 0.825762,-0.760157 z m 0.364165,-1.402537 V 13.679176 H 11.993358 9.6165338 v 0.107069 0.10706 h 2.3768242 2.376827 z m 0.171302,-0.364021 V 13.293718 H 12.186075 9.8306608 v 0.128477 0.128476 h 2.3554142 2.355412 z m -0.256953,-0.321191 c 0,-0.05633 -0.292642,-0.06424 -2.376826,-0.06424 -2.0841842,0 -2.3768262,0.0079 -2.3768262,0.06424 0,0.05632 0.292642,0.06424 2.3768262,0.06424 2.084184,0 2.376826,-0.0079 2.376826,-0.06424 z m -0.417409,-1.713029 c 0.24257,-1.32254 0.266924,-1.5023253 0.206979,-1.5280092 -0.107806,-0.046189 -0.132176,-0.039839 -0.132176,0.034462 0,0.05352 -0.02793,0.064 -0.120877,0.04542 l -0.120876,-0.02417 -0.500096,1.4250362 c -0.275054,0.783764 -0.500096,1.445412 -0.500096,1.470312 0,0.06138 0.136836,0.110225 0.167879,0.05994 0.01366,-0.02213 0.245148,-0.668087 0.514418,-1.43546 0.26927,-0.767365 0.496315,-1.388477 0.504547,-1.380245 0.0082,0.0082 -0.101268,0.646389 -0.243333,1.41814 -0.142065,0.771742 -0.258299,1.408897 -0.258299,1.415895 0,0.02688 0.15132,0.04581 0.178453,0.02233 0.01571,-0.01361 0.152275,-0.69923 0.303477,-1.523625 z m -3.351253,-0.06424 c 0,-1.027817 -0.01504,-1.5845529 -0.04283,-1.5845529 -0.02776,0 -0.04283,0.5472189 -0.04283,1.5560019 0,1.372782 0.01063,1.613104 0.07138,1.613104 0.0079,0 0.01427,-0.713052 0.01427,-1.584553 z m 0.685213,1.470951 c 0,-0.06059 -0.36157,-2.606526 -0.408466,-2.8761533 -0.02014,-0.1158312 -0.04189,-0.1393949 -0.118589,-0.1284763 -0.07094,0.010096 -0.09184,0.039557 -0.08542,0.1204323 0.01245,0.1569623 0.401861,2.8818813 0.420278,2.9409363 0.02153,0.06905 0.192201,0.01866 0.192201,-0.05674 z m 0.727784,0.03366 c -8.06e-4,-0.08994 -0.895643,-2.9379963 -0.926077,-2.9475783 -0.02049,-0.0064 -0.06488,0.0057 -0.09865,0.0271 -0.05101,0.03225 0.01346,0.2840883 0.380772,1.4874953 0.243195,0.796773 0.449109,1.461324 0.457584,1.47678 0.01866,0.03402 0.186732,-0.0054 0.186376,-0.0438 z m 2.484142,-1.718742 V 9.3109841 h -0.107065 -0.107064 v 1.7986819 1.798682 h 0.107064 0.107065 z m -4.36822,-0.02141 c 0,-1.7487152 -0.0014,-1.7772662 -0.08565,-1.7772662 -0.08427,0 -0.08565,0.028548 -0.08565,1.7772662 0,1.748716 0.0014,1.777267 0.08565,1.777267 0.08427,0 0.08565,-0.02855 0.08565,-1.777267 z M 10.34457,11.2167 V 9.5679064 h -0.128477 -0.128478 v 1.6487836 1.64879 h 0.128478 0.128477 z m 2.110606,1.572814 c -0.0087,-0.04134 -1.210178,-2.8052293 -1.227196,-2.8231383 -0.0044,-0.0046 -0.0326,0.0068 -0.06272,0.02547 -0.04104,0.02537 0.09705,0.3813783 0.551432,1.4216233 0.333403,0.763286 0.615713,1.403257 0.627358,1.422168 0.029,0.04711 0.122611,0.0083 0.111122,-0.04612 z M 14.32736,9.1396789 V 9.011203 H 12.014772 9.7021848 v 0.099925 c 0,0.054962 0.01285,0.1127739 0.02855,0.1284759 0.0157,0.015701 1.0563672,0.028548 2.3125872,0.028548 H 14.32736 Z M 14.498662,8.8184888 V 8.7114205 h -2.248348 -2.248349 v 0.1070683 0.1070609 h 2.248349 2.248348 z m 0,-0.3426058 V 8.3688148 H 12.14783 c -2.4807522,0 -2.4028192,-0.00564 -2.4028192,0.1748051 0,0.023413 0.9619662,0.039322 2.3768262,0.039322 h 2.376825 z M 10.22207,8.1975156 c 0.114559,0 0.122917,-0.011807 0.128932,-0.1820144 l 0.0064,-0.1820064 0.02569,0.1927142 0.02569,0.1927142 0.256953,-0.014976 c 0.141325,-0.00824 0.258801,-0.017876 0.261058,-0.021413 0.0023,-0.00356 -0.07941,-0.7869289 -0.181478,-1.7408748 -0.102027,-0.9539381 -0.180959,-1.7809036 -0.175363,-1.8377004 0.0056,-0.056795 0.192778,0.7396925 0.41596,1.769978 l 0.405788,1.8732352 0.193772,-0.028347 c 0.106575,-0.0156 0.208858,-0.042813 0.227295,-0.060493 0.01844,-0.017675 -0.150189,-0.8725101 -0.374725,-1.8996233 -0.224535,-1.0271124 -0.408246,-1.8762333 -0.408246,-1.8869412 0,-0.018433 -0.277232,0.033972 -0.438963,0.082975 -0.04916,0.014895 -0.07495,-7.383e-4 -0.07495,-0.04441 0,-0.051619 -0.04699,-0.066978 -0.203421,-0.066467 -0.111882,0 -0.22649,0.015318 -0.254684,0.03324 -0.03908,0.024843 -0.01096,0.4139438 0.118334,1.6374295 0.09328,0.8826587 0.164526,1.6433822 0.158327,1.6904878 -0.0062,0.047109 -0.09517,-0.6370307 -0.19772,-1.5203136 C 10.034173,5.301433 9.9397458,4.5233677 9.9268848,4.4556811 l -0.02338,-0.1230682 -0.294896,0.021104 c -0.162193,0.011599 -0.306713,0.032911 -0.321158,0.047364 -0.02046,0.02046 0.27121,2.6716493 0.402892,3.6621895 l 0.02485,0.1869354 0.192197,-0.02634 C 10.013096,8.2093738 10.15471,8.1975188 10.222085,8.1975188 Z m 2.914579,-1.7982824 c 0.349745,-0.9980969 0.629521,-1.8338531 0.621727,-1.8572356 -0.01862,-0.055875 -0.554983,-0.2065507 -0.590655,-0.1659345 -0.03499,0.039839 -1.281426,3.6154173 -1.281426,3.6759381 0,0.04247 0.490189,0.1875026 0.574887,0.1700943 0.02176,-0.0045 0.325721,-0.8247574 0.675467,-1.8228623 z m 0.831318,-0.011626 c 0.430818,-1.2329671 0.631155,-1.8610764 0.599559,-1.8797977 -0.06698,-0.039671 -0.554608,-0.1642214 -0.572585,-0.1462399 -0.0201,0.020097 -1.294958,3.6683812 -1.294958,3.7058176 0,0.025058 0.446429,0.1545011 0.578146,0.1676335 0.02356,0.00235 0.333982,-0.8289904 0.689838,-1.8474135 z m 0.265906,1.6064899 c 0.302973,-0.8355313 1.204959,-3.4530332 1.193763,-3.4642344 -0.03245,-0.032442 -0.584133,-0.1603443 -0.604368,-0.1401054 -0.02919,0.029186 -1.312622,3.6905299 -1.298589,3.7045624 0.01927,0.019272 0.479877,0.1381454 0.550695,0.1421313 0.04673,0.00262 0.09821,-0.076093 0.158499,-0.2423539 z M 31.093616,23.9545 c -0.536637,-0.08561 -0.877692,-0.492722 -0.876567,-1.046357 6.34e-4,-0.319681 0.100328,-0.548866 0.327975,-0.754103 0.239892,-0.216279 0.513106,-0.31298 0.800438,-0.283326 0.843119,0.08702 1.250983,1.018162 0.746316,1.70381 -0.199699,0.271319 -0.636634,0.437645 -0.998162,0.379976 z M 4.4132122,5.3621432 C 3.7683034,5.1367108 3.5174613,4.2818339 3.9354294,3.7338386 4.4619398,3.043539 5.5456818,3.2469899 5.7900349,4.0820125 5.9403225,4.5955838 5.6750398,5.1471937 5.1778585,5.3549279 5.0142787,5.4232816 4.5993098,5.4271944 4.4132122,5.362117 Z M 19.637469,5.3309702 C 19.43252,5.2686241 19.266466,5.1614934 19.11508,4.9939251 18.600813,4.4246894 18.869625,3.5091674 19.614618,3.2925915 c 0.669971,-0.1947615 1.3492,0.3243994 1.350483,1.0322382 4.76e-4,0.2371129 -0.133994,0.5402563 -0.323678,0.7299438 -0.258382,0.2583749 -0.680638,0.3745467 -1.003954,0.2761967 z"
     id="path5716"
     inkscape:connector-curvature="0" />
</svg>
